# xmcd
#
# Track frame offsets: 
#        150
#        16934
#        32468
#        43969
#        64365
#        78925
#        100970
#        123861
#        142371
#        161301
#        171429
#        195894
#        213448
#        231936
#        255704
#
# Disc length: 3790 seconds
#
# Revision: 0
# Processed by: cddbd v1.5.2PL0 Copyright (c) Steve Scherf et al.
# Submitted via: ExactAudioCopy v1.3
#
DISCID=cd0ecc0f
DTITLE=Various Artist - Take Me To Town: An Australian Alternative Co
DTITLE=untry Compilation - Disc 2
DYEAR=2018
DGENRE=Country
TTITLE0=Michael Carpenter - The Start Of Being Alone
TTITLE1=The Ramalamas - Ol' Bull
TTITLE2=The Weeping Willows - Devil's Road
TTITLE3=Sam Shinazzi - Songs You Can't Hear Anymore
TTITLE4=Jen Mize - Over The Mountain
TTITLE5=Den Hanrahan - Church Of The Lowly
TTITLE6=Peta Caswell - Hard Work
TTITLE7=Handasyd Williams and the Brothers Primitive - Heresy
TTITLE8=Matt J Ward and The Rising Sons - Neil Young
TTITLE9=Skyscraper Stan - A Tune I Might Remember
TTITLE10=Eaten By Dogs - Lowest Of The Low
TTITLE11=Crank Williams Y Los Pistolas - Joni Mitchell
TTITLE12=Rich Davies and The Low Road - Covered In Dust
TTITLE13=Lachlan Bryan and the Wildes - Peace In The Valley
TTITLE14=Not Good With Horses - Always Begins
EXTD=
EXTT0=
EXTT1=
EXTT2=
EXTT3=
EXTT4=
EXTT5=
EXTT6=
EXTT7=
EXTT8=
EXTT9=
EXTT10=
EXTT11=
EXTT12=
EXTT13=
EXTT14=
PLAYORDER=
